<?xml version="1.0" encoding="UTF-8"?>
<svg width="62.069" height="80" fill="#000000" version="1.1" viewBox="0 0 4.5 5.8" xml:space="preserve" xmlns="http://www.w3.org/2000/svg">
<g transform="matrix(.1 0 0 .1 -.65 0)" fill="#fc0"><g fill="#fc0">
	<path d="m33.655 45.988c-0.232-0.31-0.497-0.533-0.793-0.67s-0.608-0.205-0.937-0.205c-0.337 0-0.658 0.063-0.964 0.191s-0.579 0.344-0.82 0.649-0.431 0.699-0.567 1.183c-0.137 0.483-0.21 1.075-0.219 1.777 9e-3 0.684 0.08 1.267 0.212 1.75s0.314 0.877 0.547 1.183 0.497 0.528 0.793 0.67 0.608 0.212 0.937 0.212c0.337 0 0.658-0.066 0.964-0.198s0.579-0.349 0.82-0.649 0.431-0.695 0.567-1.183 0.21-1.082 0.219-1.784c-9e-3 -0.684-0.08-1.265-0.212-1.743s-0.314-0.873-0.547-1.183z"/>
	<path d="m51.5 39v-25.022c0-0.766-0.092-1.333-0.55-1.792l-11.637-11.636c-0.349-0.349-0.833-0.55-1.328-0.55h-29.022c-1.186 0-2.463 0.916-2.463 2.926v36.074zm-22-6c0 0.552-0.447 1-1 1s-1-0.448-1-1v-3c0-0.552 0.447-1 1-1s1 0.448 1 1zm8-29.609c0-0.458 0.553-0.687 0.877-0.363l10.095 10.095c0.324 0.324 0.095 0.877-0.363 0.877h-10.609zm-1 20.609v-4c0-0.551-0.448-1-1-1-0.553 0-1-0.448-1-1s0.447-1 1-1c1.654 0 3 1.346 3 3v4c0 1.103 0.897 2 2 2 0.553 0 1 0.448 1 1s-0.447 1-1 1c-1.103 0-2 0.897-2 2v4c0 1.654-1.346 3-3 3-0.553 0-1-0.448-1-1s0.447-1 1-1c0.552 0 1-0.449 1-1v-4c0-1.2 0.542-2.266 1.382-3-0.84-0.734-1.382-1.8-1.382-3zm-8-2c0.828 0 1.5 0.672 1.5 1.5s-0.672 1.5-1.5 1.5-1.5-0.672-1.5-1.5 0.672-1.5 1.5-1.5zm-12 4c1.103 0 2-0.897 2-2v-4c0-1.654 1.346-3 3-3 0.553 0 1 0.448 1 1s-0.447 1-1 1c-0.552 0-1 0.449-1 1v4c0 1.2-0.542 2.266-1.382 3 0.84 0.734 1.382 1.8 1.382 3v4c0 0.551 0.448 1 1 1 0.553 0 1 0.448 1 1s-0.447 1-1 1c-1.654 0-3-1.346-3-3v-4c0-1.103-0.897-2-2-2-0.553 0-1-0.448-1-1s0.447-1 1-1z"/>
	<path d="m6.5 41v15c0 1.009 1.22 2 2.463 2h40.074c1.243 0 2.463-0.991 2.463-2v-15zm11.521 10.566c0 0.474-0.087 0.873-0.26 1.196s-0.405 0.583-0.697 0.779-0.627 0.333-1.005 0.41-0.768 0.116-1.169 0.116c-0.2 0-0.436-0.021-0.704-0.062s-0.547-0.104-0.834-0.191-0.563-0.185-0.827-0.294-0.487-0.232-0.67-0.369l0.697-1.107c0.091 0.063 0.221 0.13 0.39 0.198s0.354 0.132 0.554 0.191 0.41 0.111 0.629 0.157 0.424 0.068 0.615 0.068c0.483 0 0.868-0.094 1.155-0.28s0.439-0.504 0.458-0.95v-7.711h1.668zm7.937 0.732c-0.15 0.342-0.362 0.643-0.636 0.902s-0.61 0.467-1.012 0.622-0.856 0.232-1.367 0.232c-0.219 0-0.444-0.012-0.677-0.034s-0.467-0.062-0.704-0.116c-0.237-0.055-0.463-0.13-0.677-0.226s-0.398-0.212-0.554-0.349l0.287-1.176c0.128 0.073 0.289 0.144 0.485 0.212s0.398 0.132 0.608 0.191 0.419 0.107 0.629 0.144 0.405 0.055 0.588 0.055c0.556 0 0.982-0.13 1.278-0.39s0.444-0.645 0.444-1.155c0-0.31-0.104-0.574-0.314-0.793s-0.472-0.417-0.786-0.595-0.654-0.355-1.019-0.533-0.706-0.388-1.025-0.629-0.583-0.526-0.793-0.854-0.314-0.738-0.314-1.23c0-0.446 0.082-0.843 0.246-1.189s0.385-0.641 0.663-0.882 0.602-0.426 0.971-0.554 0.759-0.191 1.169-0.191c0.419 0 0.843 0.039 1.271 0.116s0.774 0.203 1.039 0.376c-0.055 0.118-0.118 0.248-0.191 0.39s-0.142 0.273-0.205 0.396-0.118 0.226-0.164 0.308-0.073 0.128-0.082 0.137c-0.055-0.027-0.116-0.063-0.185-0.109s-0.166-0.091-0.294-0.137-0.296-0.077-0.506-0.096-0.479-0.014-0.807 0.014c-0.183 0.019-0.355 0.07-0.52 0.157s-0.31 0.193-0.438 0.321-0.228 0.271-0.301 0.431-0.109 0.313-0.109 0.458c0 0.364 0.104 0.658 0.314 0.882s0.47 0.419 0.779 0.588 0.647 0.333 1.012 0.492 0.704 0.354 1.019 0.581 0.576 0.513 0.786 0.854 0.314 0.781 0.314 1.319c4e-3 0.365-0.072 0.718-0.222 1.06zm9.803-1.142c-0.214 0.647-0.511 1.185-0.889 1.613s-0.82 0.752-1.326 0.971-1.06 0.328-1.661 0.328-1.155-0.109-1.661-0.328-0.948-0.542-1.326-0.971-0.675-0.966-0.889-1.613-0.321-1.395-0.321-2.242 0.107-1.593 0.321-2.235 0.511-1.178 0.889-1.606 0.82-0.754 1.326-0.978 1.06-0.335 1.661-0.335 1.155 0.111 1.661 0.335 0.948 0.549 1.326 0.978 0.675 0.964 0.889 1.606 0.321 1.388 0.321 2.235-0.107 1.595-0.321 2.242zm9.919 2.844h-1.668l-3.951-6.945v6.945h-1.668v-10.076h1.668l3.951 6.945v-6.945h1.668z"/>
</g></g>
</svg>
